<svg id="Layer_1" data-name="Layer 1" xmlns="http://www.w3.org/2000/svg" viewBox="0 0 819.85 258.29"><defs><style>.cls-1{fill:#262626;}</style></defs><title>solid-logo-black-extended</title><path class="cls-1" d="M280.38,144.79H241.52a4.61,4.61,0,0,0-4.61,4.61v24.89a4.61,4.61,0,0,0,4.61,4.61h23.19V289.51a4.61,4.61,0,0,1-4.61,4.61h-106a4.61,4.61,0,0,1-4.61-4.61v-106a4.61,4.61,0,0,1,4.61-4.61h15.53a4.61,4.61,0,0,0,4.61-4.61V149.39a4.61,4.61,0,0,0-4.61-4.61H132.89a18.44,18.44,0,0,0-18.44,18.44V310.71a18.44,18.44,0,0,0,18.44,18.44H280.38a18.44,18.44,0,0,0,18.44-18.44V163.22A18.44,18.44,0,0,0,280.38,144.79Z" transform="translate(-114.45 -70.86)"/><path class="cls-1" d="M250.55,250.61V224.8a4.61,4.61,0,0,0-4.61-4.61H228a4.61,4.61,0,0,1-4.61-4.61v-106A4.61,4.61,0,0,1,228,105H334a4.61,4.61,0,0,1,4.61,4.61v106a4.61,4.61,0,0,1-4.61,4.61h-17.1a4.61,4.61,0,0,0-4.61,4.61v25.81a4.61,4.61,0,0,0,4.61,4.61H354.3a18.44,18.44,0,0,0,18.44-18.44V89.29A18.44,18.44,0,0,0,354.3,70.86H206.82a18.44,18.44,0,0,0-18.44,18.44V236.78a18.44,18.44,0,0,0,18.44,18.44h39.13A4.61,4.61,0,0,0,250.55,250.61Z" transform="translate(-114.45 -70.86)"/><path class="cls-1" d="M454.64,180.22v-14q0-23.4,12.7-33.21,11.59-8.69,31.43-8.92H510q8.58,0,25.19,1.78t26.64,4.68V155q-25.41-2.23-40.46-2.23H505.24q-10,0-14.71,2.68t-4.68,13.15v8q0,9.36,3.79,12.48t13.6,3.12h25.86q25.41,0,34.1,20.28a57,57,0,0,1,4.46,23v10.92q0,29.87-19.84,39-10.25,4.9-25.19,4.9-40.35,0-63.08-6.69V259.13q24.52,2.46,42.8,2.45t21.29-.45a24.71,24.71,0,0,0,6.13-1.78q6.69-2.89,6.69-11.81v-8.69q0-11.59-7.36-14.26a20.71,20.71,0,0,0-7.35-1.11h-25Q454.64,223.46,454.64,180.22Z" transform="translate(-114.45 -70.86)"/><path class="cls-1" d="M583.47,231.71A155.25,155.25,0,0,1,585.26,206a59.73,59.73,0,0,1,5.57-17.61,29.5,29.5,0,0,1,10.48-11.48q12.25-7.8,36.11-7.8,30.54,0,42.24,13.37T691.35,230q0,34.22-11.48,46.92t-42.46,12.7q-30.32,0-42.35-13.6Q583.47,262.92,583.47,231.71Zm35.78-31.43q-2.79,4-3.68,11a159.1,159.1,0,0,0-.89,19.06,120.37,120.37,0,0,0,1.11,18.72q1.11,6.69,4.12,10.14a12.89,12.89,0,0,0,6.8,4.35,46.64,46.64,0,0,0,10.25.89,76.92,76.92,0,0,0,9.7-.45,16.56,16.56,0,0,0,6.24-2.23,10.08,10.08,0,0,0,4.35-5.57q2.9-8,2.9-21.73t-0.56-20.06a52.7,52.7,0,0,0-1.89-10.7,10.42,10.42,0,0,0-4.24-6.13q-5.13-3.34-14.38-3.45t-13.15,1A12.26,12.26,0,0,0,619.25,200.28Z" transform="translate(-114.45 -70.86)"/><path class="cls-1" d="M710.08,246.42V114h31.21v127.5q0,11.82,2.45,16.5a14,14,0,0,0,7.8,6.69q13.37,4.68,14.93,4.68v19.17H740.62q-15.16,0-22.85-9.7T710.08,246.42Z" transform="translate(-114.45 -70.86)"/><path class="cls-1" d="M778.06,152.58V133q0-5.79,5.35-5.8h23.4q4.9,0,4.9,5.8v19.62q0,5.13-4.9,5.13h-23.4a5.52,5.52,0,0,1-3.9-1.34A4.89,4.89,0,0,1,778.06,152.58Zm1.11,136V170.19h31.21V288.55H779.17Z" transform="translate(-114.45 -70.86)"/><path class="cls-1" d="M828.65,232.6q0-26.75,3.34-37.67t7.58-15.83q9.14-10.7,27.64-10.7a88.36,88.36,0,0,1,18.05,2.12,85.51,85.51,0,0,1,17.83,5.68V113.58h31.21v175H908.45l-5.35-12a62.54,62.54,0,0,1-16.27,9.36,51.47,51.47,0,0,1-19.61,4q-20.73,0-29.65-15.27T828.65,232.6Zm38.11-37.11q-3.12,2.57-5,10.59t-1.89,24.85q0,16.83,3.79,24.52t11.81,7.69q16.27,0,27.64-7.13V197.38q-11.59-4.46-27.64-4.46Q869.89,192.93,866.77,195.49Z" transform="translate(-114.45 -70.86)"/></svg>