<svg id="Layer_1" data-name="Layer 1" xmlns="http://www.w3.org/2000/svg" xmlns:xlink="http://www.w3.org/1999/xlink" viewBox="0 0 300 300"><defs><style>.cls-1{fill:url(#linear-gradient);}.cls-2{fill:url(#linear-gradient-2);}</style><linearGradient id="linear-gradient" x1="54.39" y1="259.74" x2="259.74" y2="54.39" gradientUnits="userSpaceOnUse"><stop offset="0.01" stop-color="#5b56d2"/><stop offset="0.39" stop-color="#6ea4fc"/><stop offset="0.71" stop-color="#78c9fd"/><stop offset="1" stop-color="#95d7f6"/></linearGradient><linearGradient id="linear-gradient-2" x1="140.26" y1="345.61" x2="345.61" y2="140.26" xlink:href="#linear-gradient"/></defs><title>solid_logo_color</title><path class="cls-1" d="M264.13,249.13v-51.9a5,5,0,0,0-5-5H229.52a5,5,0,0,0-5,5v27.28H90.69V90.69H224.52v23.74a5,5,0,0,0,5,5h29.61a5,5,0,0,0,5-5V65a15,15,0,0,0-15-15H65A15,15,0,0,0,50,65V249.13a15,15,0,0,0,15,15H249.13A15,15,0,0,0,264.13,249.13Z" transform="translate(-50 -50)"/><path class="cls-2" d="M140.87,208.08h30.69a5,5,0,0,0,5-5V176.55H310.39V310.39H176.55V284.81a5,5,0,0,0-5-5H140.87a5,5,0,0,0-5,5V335a15,15,0,0,0,15,15H335a15,15,0,0,0,15-15V150.87a15,15,0,0,0-15-15H150.87a15,15,0,0,0-15,15v52.21A5,5,0,0,0,140.87,208.08Z" transform="translate(-50 -50)"/></svg>