<?xml version="1.0" encoding="utf-8"?>
<!-- Generator: Adobe Illustrator 19.2.1, SVG Export Plug-In . SVG Version: 6.00 Build 0)  -->
<svg version="1.1" id="Слой_1" xmlns="http://www.w3.org/2000/svg" xmlns:xlink="http://www.w3.org/1999/xlink" x="0px" y="0px"
	 viewBox="0 0 32 32" style="enable-background:new 0 0 32 32;" xml:space="preserve">
<style type="text/css">
	.st0{fill:#121313;}
</style>
<g id="Sign_In">
	<path class="st0" d="M31,0H17c-0.6,0-1,0.4-1,1s0.4,1,1,1h13v28H17c-0.6,0-1,0.4-1,1s0.4,1,1,1h14c0.6,0,1-0.4,1-1V1
		C32,0.4,31.6,0,31,0z"/>
	<path class="st0" d="M8.6,9.7c0.4-0.4,0.4-1,0-1.4c-0.4-0.4-1-0.4-1.4,0l-6.9,7c-0.4,0.4-0.4,1,0,1.4l6.9,7c0.4,0.4,1,0.4,1.4,0
		c0.4-0.4,0.4-1,0-1.4L3.4,17H24c0.6,0,1-0.5,1-1c0-0.6-0.4-1-1-1H3.4L8.6,9.7z"/>
</g>
</svg>
